<svg width="24" height="22" viewBox="0 0 24 22" fill="none" xmlns="http://www.w3.org/2000/svg">
<path d="M17.3767 0H6.62299C2.97108 0 0 2.72362 0 6.07121V15.9288C0 19.2765 2.97108 22 6.62299 22H17.3767C21.0289 22 24 19.2764 24 15.9288V6.07121C24.0001 2.72362 21.0289 0 17.3767 0ZM21.8707 15.9288C21.8707 18.2002 19.8548 20.0481 17.3769 20.0481H6.62299C4.14522 20.0482 2.1294 18.2002 2.1294 15.9288V6.07121C2.1294 3.79992 4.14522 1.95195 6.62299 1.95195H17.3767C19.8546 1.95195 21.8706 3.79992 21.8706 6.07121V15.9288H21.8707Z" fill="white"/>
<path d="M12.0006 5.33203C8.59058 5.33203 5.81641 7.87503 5.81641 11.0009C5.81641 14.1266 8.59058 16.6695 12.0006 16.6695C15.4106 16.6695 18.1848 14.1266 18.1848 11.0009C18.1848 7.87503 15.4106 5.33203 12.0006 5.33203ZM12.0006 14.7174C9.76488 14.7174 7.9458 13.0502 7.9458 11.0007C7.9458 8.9512 9.76473 7.28385 12.0006 7.28385C14.2365 7.28385 16.0554 8.9512 16.0554 11.0007C16.0554 13.0502 14.2363 14.7174 12.0006 14.7174Z" fill="white"/>
<path d="M18.4424 3.67578C18.0322 3.67578 17.6291 3.82803 17.3394 4.0948C17.0482 4.36026 16.8809 4.72983 16.8809 5.10721C16.8809 5.48341 17.0484 5.85285 17.3394 6.11962C17.629 6.38508 18.0322 6.53864 18.4424 6.53864C18.8541 6.53864 19.2558 6.38508 19.5469 6.11962C19.8379 5.85285 20.004 5.48328 20.004 5.10721C20.004 4.72983 19.8379 4.36026 19.5469 4.0948C19.2573 3.82803 18.8541 3.67578 18.4424 3.67578Z" fill="white"/>
</svg>
